<svg width="36" height="32" viewBox="0 0 36 32" fill="none" xmlns="http://www.w3.org/2000/svg">
<path d="M35.8219 10.4711L33.9313 2.70222C33.5351 1.10222 32.1307 0 30.4922 0H5.48211C3.86159 0 2.43913 1.12 2.06101 2.70222L0.170399 10.4711C-0.26174 12.2844 0.134387 14.1333 1.28676 15.5911C1.4308 15.7867 1.62887 15.9289 1.79092 16.1067V28.4444C1.79092 30.4 3.41144 32 5.39208 32H30.6002C32.5808 32 34.2014 30.4 34.2014 28.4444V16.1067C34.3634 15.9467 34.5615 15.7867 34.7055 15.6089C35.8579 14.1511 36.272 12.2844 35.8219 10.4711ZM30.4381 3.53778L32.3287 11.3067C32.5088 12.0533 32.3468 12.8 31.8786 13.3867C31.6265 13.7067 31.0863 14.2222 30.1861 14.2222C29.0877 14.2222 28.1334 13.3511 28.0074 12.1956L26.963 3.55556L30.4381 3.53778ZM19.7967 3.55556H23.3258L24.2982 11.5911C24.3882 12.2844 24.1721 12.9778 23.704 13.4933C23.3078 13.9556 22.7317 14.2222 21.9934 14.2222C20.787 14.2222 19.7967 13.1733 19.7967 11.8933V3.55556ZM11.6761 11.5911L12.6664 3.55556H16.1956V11.8933C16.1956 13.1733 15.2052 14.2222 13.8728 14.2222C13.2606 14.2222 12.7024 13.9556 12.2703 13.4933C11.8201 12.9778 11.6041 12.2844 11.6761 11.5911ZM3.66352 11.3067L5.48211 3.55556H9.02925L7.98491 12.1956C7.84087 13.3511 6.90457 14.2222 5.80621 14.2222C4.92393 14.2222 4.36575 13.7067 4.13167 13.3867C3.64552 12.8178 3.48346 12.0533 3.66352 11.3067ZM5.39208 28.4444V17.7244C5.53613 17.7422 5.66217 17.7778 5.80621 17.7778C7.37272 17.7778 8.79517 17.1378 9.83951 16.0889C10.9199 17.1556 12.3603 17.7778 13.9988 17.7778C15.5654 17.7778 16.9698 17.1378 18.0141 16.1244C19.0765 17.1378 20.5169 17.7778 22.1375 17.7778C23.65 17.7778 25.0904 17.1556 26.1708 16.0889C27.2151 17.1378 28.6376 17.7778 30.2041 17.7778C30.3481 17.7778 30.4742 17.7422 30.6182 17.7244V28.4444H5.39208Z" fill="black" fill-opacity="0.54"/>
</svg>
