<svg width="72" height="72" viewBox="0 0 72 72" fill="none" xmlns="http://www.w3.org/2000/svg">
<circle opacity="0.32" cx="36" cy="36" r="36" fill="#C4C4C4"/>
<path d="M54.8219 30.4711L52.9313 22.7022C52.5351 21.1022 51.1307 20 49.4922 20H24.4821C22.8616 20 21.4391 21.12 21.061 22.7022L19.1704 30.4711C18.7383 32.2844 19.1344 34.1333 20.2868 35.5911C20.4308 35.7867 20.6289 35.9289 20.7909 36.1067V48.4444C20.7909 50.4 22.4114 52 24.3921 52H49.6002C51.5808 52 53.2014 50.4 53.2014 48.4444V36.1067C53.3634 35.9467 53.5615 35.7867 53.7055 35.6089C54.8579 34.1511 55.272 32.2844 54.8219 30.4711ZM49.4381 23.5378L51.3287 31.3067C51.5088 32.0533 51.3468 32.8 50.8786 33.3867C50.6265 33.7067 50.0863 34.2222 49.1861 34.2222C48.0877 34.2222 47.1334 33.3511 47.0074 32.1956L45.963 23.5556L49.4381 23.5378ZM38.7967 23.5556H42.3258L43.2982 31.5911C43.3882 32.2844 43.1721 32.9778 42.704 33.4933C42.3078 33.9556 41.7317 34.2222 40.9934 34.2222C39.787 34.2222 38.7967 33.1733 38.7967 31.8933V23.5556ZM30.6761 31.5911L31.6664 23.5556H35.1956V31.8933C35.1956 33.1733 34.2052 34.2222 32.8728 34.2222C32.2606 34.2222 31.7024 33.9556 31.2703 33.4933C30.8201 32.9778 30.6041 32.2844 30.6761 31.5911ZM22.6635 31.3067L24.4821 23.5556H28.0292L26.9849 32.1956C26.8409 33.3511 25.9046 34.2222 24.8062 34.2222C23.9239 34.2222 23.3657 33.7067 23.1317 33.3867C22.6455 32.8178 22.4835 32.0533 22.6635 31.3067ZM24.3921 48.4444V37.7244C24.5361 37.7422 24.6622 37.7778 24.8062 37.7778C26.3727 37.7778 27.7952 37.1378 28.8395 36.0889C29.9199 37.1556 31.3603 37.7778 32.9988 37.7778C34.5654 37.7778 35.9698 37.1378 37.0141 36.1244C38.0765 37.1378 39.5169 37.7778 41.1375 37.7778C42.65 37.7778 44.0904 37.1556 45.1708 36.0889C46.2151 37.1378 47.6376 37.7778 49.2041 37.7778C49.3481 37.7778 49.4742 37.7422 49.6182 37.7244V48.4444H24.3921Z" fill="black" fill-opacity="0.54"/>
</svg>
