<svg width="426" height="71" viewBox="0 0 426 71" fill="none" xmlns="http://www.w3.org/2000/svg">
<path d="M0.157227 70V1.03906H24.3125C32.68 1.03906 39.0267 2.64941 43.3525 5.87012C47.6784 9.05924 49.8413 13.7482 49.8413 19.937C49.8413 23.3156 48.973 26.2995 47.2363 28.8887C45.4997 31.4463 43.0841 33.325 39.9897 34.5249C43.5262 35.409 46.3049 37.193 48.3257 39.877C50.3781 42.5609 51.4043 45.8447 51.4043 49.7285C51.4043 56.3594 49.2887 61.3799 45.0576 64.79C40.8265 68.2002 34.7956 69.9368 26.9648 70H0.157227ZM14.3662 39.9717V58.5854H26.5386C29.8856 58.5854 32.4906 57.7961 34.3535 56.2173C36.248 54.6069 37.1953 52.3966 37.1953 49.5864C37.1953 43.2713 33.9272 40.0664 27.3911 39.9717H14.3662ZM14.3662 29.9307H24.8809C32.0485 29.8044 35.6323 26.9468 35.6323 21.3579C35.6323 18.2319 34.7166 15.9901 32.8853 14.6323C31.0854 13.243 28.2279 12.5483 24.3125 12.5483H14.3662V29.9307ZM103.599 40.1138H76.3174V58.5854H108.335V70H62.1084V1.03906H108.24V12.5483H76.3174V28.9834H103.599V40.1138ZM152.43 51.9072C152.43 49.2233 151.483 47.1709 149.588 45.75C147.694 44.2975 144.284 42.7819 139.358 41.2031C134.432 39.5928 130.533 38.014 127.659 36.4668C119.828 32.2357 115.913 26.5363 115.913 19.3687C115.913 15.6427 116.955 12.3273 119.039 9.42236C121.155 6.48584 124.17 4.19661 128.085 2.55469C132.032 0.91276 136.453 0.0917969 141.347 0.0917969C146.273 0.0917969 150.662 0.991699 154.514 2.7915C158.366 4.55973 161.35 7.06999 163.466 10.3223C165.613 13.5745 166.687 17.2689 166.687 21.4053H152.478C152.478 18.2477 151.483 15.8006 149.494 14.064C147.504 12.2957 144.71 11.4116 141.11 11.4116C137.637 11.4116 134.937 12.1536 133.011 13.6377C131.085 15.0902 130.122 17.0163 130.122 19.416C130.122 21.6579 131.243 23.5366 133.485 25.0522C135.758 26.5679 139.09 27.9888 143.479 29.3149C151.562 31.7463 157.451 34.7617 161.145 38.3613C164.839 41.9609 166.687 46.4447 166.687 51.8125C166.687 57.7803 164.429 62.4692 159.914 65.8794C155.398 69.258 149.32 70.9473 141.679 70.9473C136.374 70.9473 131.543 69.9842 127.186 68.0581C122.828 66.1004 119.497 63.4323 117.192 60.0537C114.918 56.6751 113.782 52.7598 113.782 48.3076H128.038C128.038 55.9173 132.585 59.7222 141.679 59.7222C145.057 59.7222 147.694 59.0433 149.588 57.6855C151.483 56.2962 152.43 54.3701 152.43 51.9072ZM228.259 12.5483H207.135V70H192.926V12.5483H172.086V1.03906H228.259V12.5483Z" fill="#FED530"/>
<path d="M277.896 41.8188H250.614V70H236.405V1.03906H281.306V12.5483H250.614V30.3569H277.896V41.8188ZM303.756 58.5854H333.926V70H289.547V1.03906H303.756V58.5854ZM357.229 70H343.02V1.03906H357.229V70ZM395.972 24.8154L408.902 1.03906H425.243L405.161 35.2354L425.764 70H409.234L395.972 45.8447L382.71 70H366.181L386.784 35.2354L366.702 1.03906H383.042L395.972 24.8154Z" fill="white"/>
</svg>
