<svg width="240" height="240" viewBox="0 0 240 240" fill="none" xmlns="http://www.w3.org/2000/svg">
<path d="M164.86 83.0158L97.1252 57.8908C95.0627 57.1408 92.8127 58.1721 92.0627 60.2346L46.3127 183.375C45.5627 185.438 46.594 187.688 48.6565 188.438L116.391 213.563C118.453 214.313 120.703 213.281 121.453 211.219L167.203 88.0315C167.953 86.0158 166.922 83.7658 164.86 83.0158Z" fill="#593F8F"/>
<path opacity="0.09" d="M124.266 146.109C122.579 146.109 120.844 146.062 119.063 145.969C92.766 144.516 71.2973 132.797 61.641 114.656C46.2191 85.6874 61.3598 45.3281 84.5629 32.6249C96.2816 26.1562 106.453 26.3437 112.922 27.6562C123.985 29.8593 132.141 34.9687 135.891 41.9999C139.922 49.5468 137.766 56.6249 135.469 64.078C133.407 70.7812 131.297 77.6718 133.829 85.1249C136.079 91.7812 141.938 93.8437 148.172 96.0468C154.5 98.2968 161.063 100.594 164.578 107.859C168.282 115.547 167.813 126.047 163.547 132.375C157.735 140.812 142.36 146.109 124.266 146.109ZM105.61 27.4687C99.8441 27.4687 92.6723 28.7812 84.8441 33.0937C61.8754 45.7031 46.8754 85.7343 62.1566 114.422C71.7191 132.422 93.0473 144 119.157 145.453C139.219 146.578 156.891 141.187 163.125 132.094C167.297 125.953 167.766 115.641 164.11 108.141C160.688 101.062 154.266 98.8124 148.032 96.6093C141.703 94.3593 135.704 92.2499 133.36 85.3593C130.782 77.7187 132.938 70.7343 135 63.9374C137.25 56.578 139.407 49.5937 135.469 42.2343C131.813 35.3437 123.75 30.3281 112.875 28.1718C110.766 27.7499 108.329 27.4687 105.61 27.4687Z" fill="#AAAAD5"/>
<path opacity="0.2" d="M148.453 76.9219L140.953 81.9375L75.4688 125.906L65.1094 132.891L79.3594 94.4062L89.7656 87.4219L113.25 71.625L120.75 66.6094L148.453 76.9219Z" fill="#EEEDF3"/>
<path opacity="0.2" d="M163.359 82.4531L155.859 87.4688L67.7813 146.625L57.375 153.563L62.4375 140.016L72.7969 133.078V133.031L146.109 83.8594L153.609 78.7969L163.359 82.4531Z" fill="#EEEDF3"/>
<path d="M164.859 83.0158L163.359 82.4533L153.609 78.844L148.453 76.9221L120.75 66.6565L97.1251 57.8908C95.1094 57.1408 92.8126 58.1721 92.0626 60.2346L79.3594 94.4533L65.0626 132.938L62.3907 140.11L57.3751 153.656L46.3126 183.469C46.1719 183.844 46.1251 184.219 46.0782 184.594C45.9376 186.281 46.9688 187.922 48.6563 188.531L61.2188 193.219L70.6876 196.735L95.7188 206.016L104.859 209.391L116.391 213.656C118.406 214.406 120.703 213.375 121.453 211.36L166.359 90.4221L167.203 88.1721C167.953 86.0158 166.922 83.7658 164.859 83.0158ZM158.438 90.6565L157.5 93.2346L118.828 197.438C118.406 198.516 117.188 199.125 116.063 198.703L107.578 195.563L97.3126 191.766L76.1251 183.891L66.4219 180.281L58.6876 177.422C57.8438 177.094 57.3282 176.344 57.3282 175.5C57.3282 175.219 57.3282 174.938 57.4688 174.656L67.8751 146.672L72.8907 133.125L75.5626 125.953L89.8594 87.469L97.1251 67.9221C97.5469 66.844 98.7657 66.2346 99.8438 66.6565L113.344 71.6721L141.047 81.9377L146.203 83.8596L155.953 87.469L157.219 87.9377C158.297 88.3596 158.859 89.5783 158.438 90.6565Z" fill="#EEEDF3"/>
<path d="M80.625 195.937C78.7031 195.234 77.7187 193.078 78.4219 191.156C79.125 189.234 81.2812 188.25 83.2031 188.953C85.125 189.656 86.1093 191.812 85.4062 193.734C84.6562 195.703 82.5 196.641 80.625 195.937Z" fill="#C9C7D9"/>
<path d="M179.578 206.25L178.078 197.109L182.203 195.844L182.859 205.594L179.578 206.25Z" fill="#D7DDE9"/>
<path d="M183 204.61C183.281 204.656 183.516 204.75 183.75 204.938C185.203 206.156 189.656 208.313 191.906 208.641C194.344 209.016 194.484 210.188 191.016 210.188C187.594 210.188 185.062 209.86 183.562 209.906C182.016 209.953 182.437 210.188 178.687 210.188C175.781 210.188 176.719 206.485 177.75 204.797C178.078 204.281 178.5 204 179.109 204.047L183 204.61Z" fill="#3F3F3F"/>
<path d="M166.312 197.719L172.031 190.453L175.734 192.656L169.031 199.688L166.312 197.719Z" fill="#D7DDE9"/>
<path d="M169.875 199.125C170.016 199.359 170.156 199.594 170.156 199.875C170.25 201.75 171.703 206.625 173.437 208.172C175.172 209.766 174.047 210.141 171.234 208.828C168.141 207.375 167.437 204.234 166.359 203.156C165.281 202.078 165.375 202.5 162.844 199.734C160.875 197.625 164.203 195.797 166.172 195.375C166.781 195.234 167.25 195.375 167.625 195.891L169.875 199.125Z" fill="#3F3F3F"/>
<path d="M163.734 43.2188C163.734 43.2188 162.609 50.7188 164.766 54.1875C166.922 57.6562 167.25 58.1719 167.25 58.1719" fill="#ED8C61"/>
<path d="M169.266 61.5002C168.656 61.8752 167.953 62.0627 167.297 62.0627C165.985 62.0627 164.672 61.4064 163.969 60.1408C163.922 60.0939 163.547 59.4377 161.531 56.2502C160.125 54.0002 159.656 50.9533 159.61 48.2814C159.516 45.6564 159.797 43.4064 159.938 42.6564C160.266 40.547 162.235 39.047 164.391 39.3752C166.5 39.7033 168 41.672 167.672 43.8283C167.485 44.9533 167.438 46.2658 167.438 47.4846C167.438 48.7502 167.531 49.9689 167.719 50.8596C167.813 51.3752 167.953 51.8439 168.141 52.1252C170.344 55.6408 170.672 56.2033 170.672 56.2033C171.75 58.0314 171.141 60.4221 169.266 61.5002Z" fill="#E8E8E8"/>
<path d="M154.875 104.438C155.672 93.2349 151.922 65.438 150 54.3755C149.719 52.688 150.985 51.1411 152.719 51.1411H175.735C176.953 51.1411 178.078 51.9849 178.406 53.1567C181.031 63.188 182.719 104.391 182.719 104.391H154.875V104.438Z" fill="#3F3F3F"/>
<path d="M192.891 81.141C192.516 79.0316 189.938 73.641 187.078 68.016C184.031 62.0628 180.609 55.7816 179.016 52.9691C178.125 51.3753 176.109 50.8128 174.516 51.6566C172.922 52.5472 172.359 54.5628 173.203 56.1566C175.641 60.5628 178.125 65.2035 180.328 69.3753C182.813 74.1566 185.203 77.0628 186.188 79.4066C184.406 80.9535 179.953 81.0941 176.438 80.8597C175.453 80.766 171.703 80.4847 169.219 82.7816C168.234 83.6722 167.109 85.3128 167.203 87.891C167.297 89.6722 167.531 90.3753 169.125 91.1722C169.781 91.5003 170.625 91.5472 171.328 91.5003C173.156 91.266 173.297 90.2816 173.297 88.1722C173.297 86.6722 174.094 85.1722 174.094 85.1722C174.094 85.1722 179.438 86.4847 183.891 87.0472C188.344 87.6097 190.172 86.7191 191.813 84.891C192.75 83.8128 193.125 82.4535 192.891 81.141Z" fill="#E8E8E8"/>
<path d="M156.094 122.532C156.094 122.532 152.719 116.344 154.875 104.438H182.672C182.672 104.438 183.047 113.485 182.438 122.532H156.094Z" fill="#996CF4"/>
<path d="M187.031 68.0157L183.797 68.672L180.328 69.3751C178.172 65.2032 175.641 60.5157 173.203 56.1564C172.313 54.5626 172.922 52.547 174.516 51.6564C176.109 50.7657 178.125 51.3751 179.016 52.9689C180.563 55.7814 183.984 62.0626 187.031 68.0157Z" fill="black" fill-opacity="0.26"/>
<path d="M155.766 53.7659C155.344 51.9847 153.516 50.9065 151.781 51.3753C143.813 53.344 138.281 55.1253 134.438 56.7659C125.578 60.5159 125.672 63.2815 125.672 64.6878C125.719 66.2815 126.047 69.4222 145.125 76.3597C145.125 76.9222 144.516 79.0784 144.141 79.7815C143.25 81.3753 144.188 82.9222 145.125 84.469C145.453 84.9847 146.203 85.6409 147.094 85.6409C148.266 85.6409 149.719 84.1409 149.906 82.9222C150.609 78.469 150.516 75.844 150.281 75.3284C150.281 75.2815 150.234 75.2347 150.234 75.1878C150.141 75.0472 150.094 74.9065 150 74.7659C149.953 74.6722 149.859 74.6253 149.813 74.5315C149.719 74.4378 149.672 74.344 149.578 74.2972C149.438 74.1565 149.297 74.0628 149.156 73.969C149.109 73.969 149.109 73.9222 149.063 73.9222C148.828 73.7815 148.594 73.6409 148.359 73.5472C141.891 70.8753 135.844 66.5628 133.172 64.6878C134.109 64.1722 135.422 63.5159 137.063 62.9065C141.141 61.2659 147.141 59.344 153.281 57.844C155.109 57.3284 156.188 55.5472 155.766 53.7659Z" fill="#E8E8E8"/>
<path d="M187.547 66.5626L183.094 67.4064L179.625 68.0626L176.672 68.6251C172.875 61.172 171.984 59.4845 171.844 56.9533C171.703 54.0939 172.453 52.6408 174.328 51.6095C176.203 50.5783 178.547 51.2345 179.578 53.1095C179.672 53.2501 183.703 59.0158 187.547 66.5626Z" fill="#3F3F3F"/>
<path d="M199.641 159.282C199.219 162 197.766 164.954 195.703 168.563C192.234 174.563 186.938 181.266 182.156 186.844C178.828 190.735 175.781 194.11 173.859 196.407C173.016 197.391 172.359 198.188 171.984 198.704L168.047 193.641C169.5 191.579 170.859 188.813 172.547 186.235C172.594 186.188 172.641 186.094 172.687 186.047C175.875 181.219 179.297 175.782 182.016 170.813C182.109 170.625 182.203 170.485 182.297 170.297C185.203 165.047 187.359 160.407 187.781 157.688C188.531 152.86 181.266 137.766 174.094 124.454C173.297 122.907 172.453 121.407 171.656 119.954C171.375 119.438 171.234 118.922 171.188 118.36C171 115.922 172.781 113.11 174.984 111.891C177.656 110.391 181.125 109.641 182.625 112.313C185.672 117.844 201.469 147.422 199.641 159.282Z" fill="#996CF4"/>
<path d="M182.156 186.844C178.828 190.734 175.781 194.109 173.859 196.406C173.531 193.688 173.203 190.734 172.875 187.734C172.828 187.172 172.734 186.562 172.688 186C175.875 181.172 179.297 175.734 182.016 170.766C182.203 175.687 182.203 181.453 182.156 186.844Z" fill="black" fill-opacity="0.15"/>
<path d="M181.453 160.781C180.094 149.672 170.766 119.813 169.312 116.531C168.094 113.719 161.344 113.11 158.531 114.375C155.719 115.594 154.453 118.875 155.672 121.688C159.422 130.219 170.062 153.047 171.141 161.11C171.75 165.938 172.594 175.641 174.094 183.938C175.172 189.703 176.25 195.328 177.047 199.406C177.75 202.969 177.75 202.313 177.797 202.641L184.453 201.61C184.453 201.61 183.047 173.906 181.453 160.781Z" fill="#996CF4"/>
<path d="M153.328 57.7502C147.187 59.2502 141.187 61.1721 137.109 62.8127L134.391 56.7189C138.234 55.1252 143.766 53.2971 151.734 51.3283C153.516 50.9064 155.297 51.9846 155.719 53.7189C156.187 55.5471 155.109 57.3283 153.328 57.7502Z" fill="black" fill-opacity="0.26"/>
<path d="M151.828 51.2348C153.937 50.9067 155.484 51.9379 156.047 54.0004C156.609 56.0629 155.203 57.6567 153.328 58.7348C151.078 60.0473 150.281 60.3285 140.766 63.6098L135.469 56.2973C147.656 51.5629 148.266 51.7504 151.828 51.2348Z" fill="#3F3F3F"/>
<path d="M167.672 50.8596C167.485 50.8596 167.297 50.8596 167.156 50.8596C164.297 50.8596 161.672 49.9221 159.61 48.2814C159.516 45.6564 159.797 43.4064 159.938 42.6564C160.266 40.547 162.235 39.047 164.391 39.3752C166.5 39.7033 168 41.672 167.672 43.8283C167.485 44.9533 167.438 46.2658 167.438 47.4846C167.344 48.7033 167.438 49.9221 167.672 50.8596Z" fill="black" fill-opacity="0.26"/>
<path d="M178.688 36.9846C177.141 44.1565 173.157 49.4065 166.266 49.4065C159.422 49.4065 155.11 44.2034 153.844 36.9846C152.719 30.2346 159.422 23.6252 166.266 23.6252C173.203 23.5784 180.141 30.2815 178.688 36.9846Z" fill="#E8E8E8"/>
<path d="M179.625 202.687L179.578 202.5C177.703 190.875 174.844 173.344 173.437 162.281C172.406 154.219 162.422 130.312 158.672 121.781C158.625 121.734 158.625 121.641 158.625 121.594C158.625 121.547 158.625 121.547 158.578 121.5C157.969 119.859 156.141 113.766 157.875 104.156L158.437 104.25C156.703 113.719 158.531 119.672 159.094 121.312C159.094 121.359 159.141 121.406 159.141 121.453C159.141 121.5 159.141 121.547 159.187 121.594C162.937 130.125 172.922 154.125 173.953 162.234C175.406 173.25 178.219 190.828 180.094 202.453L180.141 202.641L179.625 202.687Z" fill="white" fill-opacity="0.13"/>
<path d="M170.719 51.1875C170.719 52.875 170.062 55.6875 165.656 55.6875C162.469 55.6875 158.437 54.3281 156.937 51.75L156.609 51.1875H170.719Z" fill="#26353A"/>
<path d="M157.922 51.1875C159.094 53.25 162.609 54.5625 165.656 54.5625C168.703 54.5625 169.594 53.0625 169.594 51.1875H157.922Z" fill="#E8E8E8"/>
<path d="M174.609 85.8281C174.609 85.7813 174.797 83.9063 172.828 81.1875L174.656 80.1094C176.953 83.5312 176.719 85.9688 176.719 86.1094L174.609 85.8281Z" fill="#82AACE"/>
<path d="M173.203 80.1564C174.234 79.6876 175.593 79.922 176.297 80.672C176.953 81.422 176.672 82.4533 175.593 82.922C174.562 83.3908 173.203 83.1564 172.5 82.4064C171.843 81.6095 172.125 80.6251 173.203 80.1564Z" fill="#4E7DB0"/>
<path d="M178.406 27.7969C174.656 21.75 165.422 21.2813 163.641 21.375C162.703 21.4219 160.641 21.9844 159.75 23.3906C159.703 22.4063 159.75 21.5156 159.75 21.5156C158.953 22.5 158.813 23.3438 158.953 24C158.391 23.25 158.016 22.4531 158.016 22.4531C157.875 23.4844 158.156 24.0938 158.578 24.4219C156.047 25.0313 152.813 28.5938 153.938 35.9063C154.406 39.0938 161.625 36.6563 163.641 33.4688C165 35.6719 167.719 36.1406 167.719 36.1406C166.781 35.2031 165.938 33.7969 165.281 32.3906C169.125 34.7344 174.234 37.2656 174.844 38.8125C174.844 38.8125 175.969 36.3281 175.125 34.7344C175.125 34.7344 178.172 35.4844 178.547 38.5313C178.5 38.4375 182.391 34.2656 178.406 27.7969Z" fill="#424344"/>
<path d="M169.43 104.141L168.875 104.231L171.91 123.019L172.465 122.929L169.43 104.141Z" fill="white" fill-opacity="0.13"/>
<path d="M171.609 119.438L171.516 118.875C171.516 118.875 172.688 118.687 173.297 117.797C173.672 117.281 173.766 116.625 173.672 115.875L171.75 103.969L172.313 103.875L174.234 115.781C174.375 116.719 174.234 117.516 173.766 118.125C173.016 119.25 171.656 119.438 171.609 119.438Z" fill="white" fill-opacity="0.13"/>
<path d="M153.469 36.2343C152.906 37.4531 153 38.7656 153.516 39.8906C154.125 41.2031 156.047 41.1093 156.61 39.7968L158.203 36.2343C158.813 34.9218 157.594 33.4687 156.188 33.8437C155.016 34.2187 153.985 35.0625 153.469 36.2343Z" fill="#E8E8E8"/>
<path d="M91.646 130.428L126.639 108.868C127.423 108.388 128.427 108.434 129.16 109.001C132.485 111.561 135.455 114.157 137.437 116.339C137.437 116.339 139.144 118.087 139.883 119.196C141.076 120.708 141.65 122.686 141.65 124.607C141.65 126.764 141.021 128.803 139.768 130.433C139.484 130.724 138.4 132.007 137.377 133.055C131.407 139.575 115.822 150.348 107.625 153.613C106.432 154.139 103.247 155.238 101.595 155.299C100.003 155.299 98.465 154.952 96.9874 154.19C95.1703 153.143 93.7476 151.518 92.9489 149.591C92.4347 148.252 91.641 144.236 91.641 144.118C91.1269 141.251 90.7425 137.225 90.5528 132.523C90.5178 131.68 90.9422 130.862 91.646 130.428Z" fill="#FCBDEB"/>
<path opacity="0.4" d="M93.9863 118.815C92.4438 119.771 90.5019 118.55 90.5768 116.715C90.7615 112.412 91.081 108.621 91.4704 105.8C91.5303 105.738 92.324 100.736 93.2375 99.0441C94.8299 95.9013 97.9549 93.9799 101.314 93.9799H101.594C103.76 94.0361 108.368 95.9575 108.368 96.0751C110.689 97.0409 113.719 98.6762 116.979 100.644C118.447 101.533 118.482 103.715 117.014 104.619L93.9863 118.815Z" fill="#F089D3"/>
</svg>
