<svg width="126" height="15" viewBox="0 0 126 15" fill="none" xmlns="http://www.w3.org/2000/svg">
<path d="M0.130219 11.984H1.69022V2.288H0.130219V0.271999H6.56222V2.288H5.00222V6.728L9.61022 2.288H8.29022V0.271999H14.3622V2.288H13.0182L8.14622 6.968L13.2342 11.984H14.5782V14H8.24222V11.984H9.49022L5.00222 7.472V11.984H6.56222V14H0.130219V11.984ZM23.9101 14.264C22.3901 14.264 21.0461 13.96 19.8781 13.352C18.7101 12.744 17.8061 11.904 17.1661 10.832C16.5421 9.744 16.2301 8.528 16.2301 7.184C16.2301 5.824 16.5421 4.6 17.1661 3.512C17.8061 2.424 18.7101 1.576 19.8781 0.967999C21.0461 0.343999 22.3901 0.0319996 23.9101 0.0319996C25.4301 0.0319996 26.7661 0.343999 27.9181 0.967999C29.0861 1.576 29.9821 2.424 30.6061 3.512C31.2461 4.6 31.5661 5.816 31.5661 7.16C31.5661 8.52 31.2461 9.744 30.6061 10.832C29.9821 11.904 29.0861 12.744 27.9181 13.352C26.7661 13.96 25.4301 14.264 23.9101 14.264ZM23.9101 11.96C25.1901 11.96 26.2061 11.504 26.9581 10.592C27.7261 9.68 28.1101 8.52 28.1101 7.112C28.1101 5.704 27.7341 4.552 26.9821 3.656C26.2461 2.76 25.2381 2.312 23.9581 2.312C22.6461 2.312 21.6061 2.76 20.8381 3.656C20.0701 4.536 19.6861 5.696 19.6861 7.136C19.6861 8.544 20.0621 9.704 20.8141 10.616C21.5821 11.512 22.6141 11.96 23.9101 11.96ZM33.6464 11.984H35.2304V2.288H33.6464V0.271999H39.0464L45.5504 9.824V2.288H43.8704V0.271999H49.3904V2.288H47.8304V14H44.5184L37.4624 3.608V11.984H39.1424V14H33.6464V11.984ZM54.224 11.984H55.88V2.24H52.976V5.24H50.768V0.271999H64.232V5.24H62.048V2.24H59.168V11.984H60.848V14H54.224V11.984ZM65.4393 11.984H66.9753L70.5513 2.288H69.1353V0.271999H77.6073V2.288H76.1913L79.8393 11.984H81.3033V14H74.8233V11.984H76.4553L75.4473 8.984H70.9593L69.9513 11.984H71.4633V14H65.4393V11.984ZM74.8713 7.064L73.3113 2.312H73.1913L71.5593 7.064H74.8713ZM97.3343 9.752C96.9023 11.208 96.0863 12.32 94.8863 13.088C93.7023 13.856 92.2303 14.248 90.4703 14.264C88.9983 14.264 87.6863 13.968 86.5343 13.376C85.3983 12.784 84.5023 11.952 83.8463 10.88C83.2063 9.808 82.8863 8.56 82.8863 7.136C82.8863 5.728 83.1903 4.488 83.7983 3.416C84.4223 2.344 85.2863 1.512 86.3903 0.92C87.4943 0.328 88.7583 0.0319996 90.1823 0.0319996C91.1903 0.0319996 92.0863 0.191999 92.8703 0.511999C93.6543 0.831999 94.2863 1.288 94.7663 1.88V0.271999H96.9983V4.88L95.0783 4.904C94.6143 4.024 94.0383 3.376 93.3503 2.96C92.6783 2.528 91.8543 2.312 90.8783 2.312C89.4703 2.312 88.3503 2.76 87.5183 3.656C86.6863 4.536 86.2703 5.68 86.2703 7.088C86.2703 8.064 86.4543 8.92 86.8223 9.656C87.2063 10.392 87.7263 10.96 88.3823 11.36C89.0543 11.76 89.8143 11.96 90.6623 11.96C91.6863 11.96 92.5503 11.696 93.2543 11.168C93.9743 10.64 94.4863 9.84 94.7903 8.768L97.3343 9.752ZM102.693 11.984H104.349V2.24H101.445V5.24H99.2367V0.271999H112.701V5.24H110.517V2.24H107.637V11.984H109.317V14H102.693V11.984ZM121.324 5.648C122.924 5.952 124.092 6.44 124.828 7.112C125.564 7.768 125.932 8.736 125.932 10.016C125.932 11.28 125.516 12.304 124.684 13.088C123.852 13.856 122.724 14.24 121.3 14.24C120.468 14.24 119.668 14.08 118.9 13.76C118.132 13.44 117.532 13.008 117.1 12.464V14H114.796V9.344H116.86C117.116 10.224 117.596 10.936 118.3 11.48C119.004 12.008 119.852 12.272 120.844 12.272C121.484 12.272 121.98 12.128 122.332 11.84C122.7 11.536 122.884 11.112 122.884 10.568C122.884 9.944 122.692 9.496 122.308 9.224C121.94 8.936 121.268 8.696 120.292 8.504L119.068 8.264C117.628 7.976 116.54 7.488 115.804 6.8C115.068 6.096 114.7 5.16 114.7 3.992C114.7 2.776 115.108 1.808 115.924 1.088C116.74 0.368 117.828 0.0079999 119.188 0.0079999C120.036 0.0079999 120.788 0.144 121.444 0.415999C122.116 0.671999 122.668 1.04 123.1 1.52V0.271999H125.26V4.232H123.268C123.044 3.592 122.66 3.056 122.116 2.624C121.588 2.192 120.844 1.976 119.884 1.976C119.26 1.976 118.772 2.12 118.42 2.408C118.084 2.68 117.916 3.056 117.916 3.536C117.916 4.08 118.124 4.504 118.54 4.808C118.972 5.096 119.652 5.328 120.58 5.504L121.324 5.648Z" fill="white"/>
</svg>
